<mxfile host="app.diagrams.net" agent="Mozilla/5.0 (Windows NT 10.0; Win64; x64) AppleWebKit/537.36 (KHTML, like Gecko) Chrome/130.0.0.0 Safari/537.36 Edg/130.0.0.0" version="24.7.17">
  <diagram name="Assignment05_Theater" id="AEo9p9IgGk7MhFUKNtLZ">
    <mxGraphModel dx="399" dy="630" grid="1" gridSize="10" guides="1" tooltips="1" connect="1" arrows="1" fold="1" page="1" pageScale="1" pageWidth="850" pageHeight="1100" math="0" shadow="0">
      <root>
        <mxCell id="0" />
        <mxCell id="1" parent="0" />
        <mxCell id="hYOIgjlXwHa71BknfNRf-1" value="Theater" style="swimlane;fontStyle=1;align=center;verticalAlign=top;childLayout=stackLayout;horizontal=1;startSize=26;horizontalStack=0;resizeParent=1;resizeParentMax=0;resizeLast=0;collapsible=1;marginBottom=0;whiteSpace=wrap;html=1;" vertex="1" parent="1">
          <mxGeometry x="20" y="70" width="200" height="320" as="geometry" />
        </mxCell>
        <mxCell id="hYOIgjlXwHa71BknfNRf-2" value="- state: STATE&lt;div&gt;- seats: char[15][30]&lt;/div&gt;&lt;div&gt;- prices: float[15][30]&lt;/div&gt;&lt;div&gt;- numSoldTickets(int)&lt;/div&gt;&lt;div&gt;- totalRevenue(float)&lt;/div&gt;" style="text;strokeColor=none;fillColor=none;align=left;verticalAlign=top;spacingLeft=4;spacingRight=4;overflow=hidden;rotatable=0;points=[[0,0.5],[1,0.5]];portConstraint=eastwest;whiteSpace=wrap;html=1;" vertex="1" parent="hYOIgjlXwHa71BknfNRf-1">
          <mxGeometry y="26" width="200" height="84" as="geometry" />
        </mxCell>
        <mxCell id="hYOIgjlXwHa71BknfNRf-3" value="" style="line;strokeWidth=1;fillColor=none;align=left;verticalAlign=middle;spacingTop=-1;spacingLeft=3;spacingRight=3;rotatable=0;labelPosition=right;points=[];portConstraint=eastwest;strokeColor=inherit;" vertex="1" parent="hYOIgjlXwHa71BknfNRf-1">
          <mxGeometry y="110" width="200" height="8" as="geometry" />
        </mxCell>
        <mxCell id="hYOIgjlXwHa71BknfNRf-4" value="+ Theater()&lt;div&gt;+ ~Theater()&lt;/div&gt;&lt;div&gt;&lt;br&gt;&lt;/div&gt;&lt;div&gt;+ getPrices(filename: string): bool&lt;/div&gt;&lt;div&gt;+ setState(state: STATE): void&lt;/div&gt;&lt;div&gt;+ getState(): STATE&lt;/div&gt;&lt;div&gt;&lt;br&gt;&lt;/div&gt;&lt;div&gt;+ showSeats(): void&lt;/div&gt;&lt;div&gt;+ showMenu(): void&lt;/div&gt;&lt;div&gt;+ isValid(int row, int col): bool&lt;/div&gt;&lt;div&gt;+ purchase(): void&lt;/div&gt;&lt;div&gt;+ viewSales(): void&lt;/div&gt;&lt;div&gt;+ checkAvailable(): void&lt;/div&gt;" style="text;strokeColor=none;fillColor=none;align=left;verticalAlign=top;spacingLeft=4;spacingRight=4;overflow=hidden;rotatable=0;points=[[0,0.5],[1,0.5]];portConstraint=eastwest;whiteSpace=wrap;html=1;" vertex="1" parent="hYOIgjlXwHa71BknfNRf-1">
          <mxGeometry y="118" width="200" height="202" as="geometry" />
        </mxCell>
        <mxCell id="hYOIgjlXwHa71BknfNRf-6" value="&lt;p style=&quot;margin:0px;margin-top:4px;text-align:center;&quot;&gt;&lt;i&gt;&amp;lt;&amp;lt;enumeration&amp;gt;&amp;gt;&lt;/i&gt;&lt;br&gt;&lt;b&gt;STATE&lt;/b&gt;&lt;/p&gt;&lt;hr size=&quot;1&quot; style=&quot;border-style:solid;&quot;&gt;&lt;p style=&quot;margin:0px;margin-left:4px;&quot;&gt;MENU&lt;/p&gt;&lt;p style=&quot;margin:0px;margin-left:4px;&quot;&gt;PURCHASING&lt;/p&gt;&lt;p style=&quot;margin:0px;margin-left:4px;&quot;&gt;SALES&lt;/p&gt;&lt;p style=&quot;margin:0px;margin-left:4px;&quot;&gt;CHECK&lt;/p&gt;&lt;p style=&quot;margin:0px;margin-left:4px;&quot;&gt;EXIT&lt;/p&gt;" style="verticalAlign=top;align=left;overflow=fill;html=1;whiteSpace=wrap;" vertex="1" parent="1">
          <mxGeometry x="300" y="70" width="110" height="120" as="geometry" />
        </mxCell>
      </root>
    </mxGraphModel>
  </diagram>
</mxfile>
